<svg width="64" height="64" viewBox="0 0 64 64" fill="none" xmlns="http://www.w3.org/2000/svg">
<path d="M32.0002 5.3335C17.3068 5.3335 5.3335 17.3068 5.3335 32.0002C5.3335 46.6935 17.3068 58.6668 32.0002 58.6668C46.6935 58.6668 58.6668 46.6935 58.6668 32.0002C58.6668 17.3068 46.6935 5.3335 32.0002 5.3335ZM32.0002 53.3335C20.2402 53.3335 10.6668 43.7602 10.6668 32.0002C10.6668 20.2402 20.2402 10.6668 32.0002 10.6668C43.7602 10.6668 53.3335 20.2402 53.3335 32.0002C53.3335 43.7602 43.7602 53.3335 32.0002 53.3335ZM40.0002 32.0002C40.0002 36.4268 36.4268 40.0002 32.0002 40.0002C27.5735 40.0002 24.0002 36.4268 24.0002 32.0002C24.0002 27.5735 27.5735 24.0002 32.0002 24.0002C36.4268 24.0002 40.0002 27.5735 40.0002 32.0002Z" fill="#DAE2EB"/>
</svg>
