<svg width="49" height="48" viewBox="0 0 49 48" fill="none" xmlns="http://www.w3.org/2000/svg">
<path d="M17.75 24.1818C6.5 24.1818 6.5 30.3273 6.5 33.8727C6.5 35.5273 7.175 36 9.875 36H25.85C28.55 36 29 35.5273 29 33.8727C29 30.5636 29 24.1818 17.75 24.1818Z" fill="#E5EBF1"/>
<path d="M32.6 35.3342C32.6 35.5719 32.5921 35.7936 32.5749 36H39.35C42.05 36 42.5 35.5273 42.5 33.8727C42.5 30.5636 41.375 24.1818 31.25 24.1818C30.5524 24.1818 29.8981 24.2054 29.2844 24.2506C32.5188 27.4515 32.6 32.1043 32.6 35.3342Z" fill="#E5EBF1"/>
<path d="M13.25 15.9091C13.25 19.8485 15.2647 21.8182 17.75 21.8182C20.2353 21.8182 22.25 19.8485 22.25 15.9091C22.25 11.9697 20.2353 10 17.75 10C15.2647 10 13.25 11.9697 13.25 15.9091Z" fill="#E5EBF1"/>
<path d="M26.75 15.9091C26.75 19.8485 28.7647 21.8182 31.25 21.8182C33.7353 21.8182 35.75 19.8485 35.75 15.9091C35.75 11.9697 33.7353 10 31.25 10C28.7647 10 26.75 11.9697 26.75 15.9091Z" fill="#E5EBF1"/>
</svg>
