<svg width="24" height="24" viewBox="0 0 24 24" fill="none" xmlns="http://www.w3.org/2000/svg">
<path d="M8.625 12.0909C3 12.0909 3 15.1636 3 16.9364C3 17.7636 3.3375 18 4.6875 18H12.675C14.025 18 14.25 17.7636 14.25 16.9364C14.25 15.2818 14.25 12.0909 8.625 12.0909Z" fill="white"/>
<path d="M16.05 17.6671C16.05 17.786 16.0461 17.8968 16.0374 18H19.425C20.775 18 21 17.7636 21 16.9364C21 15.2818 20.4375 12.0909 15.375 12.0909C15.0262 12.0909 14.6991 12.1027 14.3922 12.1253C16.0094 13.7258 16.05 16.0521 16.05 17.6671Z" fill="white"/>
<path d="M6.375 7.95455C6.375 9.92424 7.38236 10.9091 8.625 10.9091C9.86764 10.9091 10.875 9.92424 10.875 7.95455C10.875 5.98485 9.86764 5 8.625 5C7.38236 5 6.375 5.98485 6.375 7.95455Z" fill="white"/>
<path d="M13.125 7.95455C13.125 9.92424 14.1324 10.9091 15.375 10.9091C16.6176 10.9091 17.625 9.92424 17.625 7.95455C17.625 5.98485 16.6176 5 15.375 5C14.1324 5 13.125 5.98485 13.125 7.95455Z" fill="white"/>
</svg>
