<svg width="24" height="24" viewBox="0 0 24 24" fill="none" xmlns="http://www.w3.org/2000/svg">
<path d="M11.2232 19.2905L11.2217 19.2892C8.62662 16.936 6.55384 15.0538 5.1178 13.2981C3.69324 11.5565 3 10.0615 3 8.5C3 5.97228 4.97228 4 7.5 4C8.93721 4 10.3322 4.67394 11.2386 5.73834L12 6.6324L12.7614 5.73834C13.6678 4.67394 15.0628 4 16.5 4C19.0277 4 21 5.97228 21 8.5C21 10.0615 20.3068 11.5565 18.882 13.2996C17.4459 15.0565 15.3735 16.9408 12.7787 19.2988C12.7783 19.2992 12.7779 19.2996 12.7775 19.2999L12.0026 20L11.2232 19.2905Z" stroke="#E0E0E0" stroke-width="2"/>
<path d="M12 21.35L10.55 20.03C5.4 15.36 2 12.28 2 8.5C2 5.42 4.42 3 7.5 3C9.24 3 10.91 3.81 12 5.09C13.09 3.81 14.76 3 16.5 3C19.58 3 22 5.42 22 8.5C22 12.28 18.6 15.36 13.45 20.04L12 21.35Z" fill="#FF3347"/>
</svg>
