<svg width="96" height="96" viewBox="0 0 96 96" fill="none" xmlns="http://www.w3.org/2000/svg">
<path d="M91.96 36.0002C76.6 20.6402 55.2 15.0402 35.36 19.1202L45.44 29.2002C59.32 28.5202 73.4 33.4002 83.96 44.0002L91.96 36.0002ZM75.96 52.0002C70.8 46.8402 64.6 43.4802 58 41.7602L72.12 55.8802L75.96 52.0002ZM8 12.2002L20.28 24.4002C14.4 27.2802 8.88 31.1202 4 36.0002L11.96 44.0002C16.92 39.0402 22.64 35.3602 28.76 32.9202L37.72 41.8802C31.24 43.5602 25.08 46.9202 20 52.0002V52.0402L27.96 60.0002C33.4 54.5602 40.52 51.8402 47.64 51.7602L75.92 80.0002L81 74.9602L13.16 7.16016L8 12.2002ZM36 68.0002L48 80.0002L60 68.0002C53.4 61.3602 42.64 61.3602 36 68.0002Z" fill="#AEB7C2"/>
</svg>
