<svg width="25" height="24" viewBox="0 0 25 24" fill="none" xmlns="http://www.w3.org/2000/svg">
<path d="M12.49 2C6.96999 2 2.48999 6.48 2.48999 12C2.48999 17.52 6.96999 22 12.49 22C18.01 22 22.49 17.52 22.49 12C22.49 6.48 18.01 2 12.49 2ZM16.1 8.34C17.17 8.34 18.03 9.2 18.03 10.27C18.03 11.34 17.17 12.2 16.1 12.2C15.03 12.2 14.17 11.34 14.17 10.27C14.16 9.2 15.03 8.34 16.1 8.34ZM10.1 6.76C11.4 6.76 12.46 7.82 12.46 9.12C12.46 10.42 11.4 11.48 10.1 11.48C8.79999 11.48 7.73999 10.42 7.73999 9.12C7.73999 7.81 8.78999 6.76 10.1 6.76ZM10.1 15.89V19.64C7.69999 18.89 5.79999 17.04 4.95999 14.68C6.00999 13.56 8.62999 12.99 10.1 12.99C10.63 12.99 11.3 13.07 12 13.21C10.36 14.08 10.1 15.23 10.1 15.89ZM12.49 20C12.22 20 11.96 19.99 11.7 19.96V15.89C11.7 14.47 14.64 13.76 16.1 13.76C17.17 13.76 19.02 14.15 19.94 14.91C18.77 17.88 15.88 20 12.49 20Z" fill="#5181B8"/>
</svg>
