<?xml version="1.0" encoding="utf-8"?>
<!-- Generator: Adobe Illustrator 22.0.1, SVG Export Plug-In . SVG Version: 6.00 Build 0)  -->
<svg version="1.1" id="Слой_1" xmlns="http://www.w3.org/2000/svg" xmlns:xlink="http://www.w3.org/1999/xlink" x="0px" y="0px"
	 viewBox="0 0 48 48" style="enable-background:new 0 0 48 48;" xml:space="preserve">
<style type="text/css">
	.st0{fill:#4A76A7;}
	.st1{fill:#4A77A8;}
	.st2{fill:#4978A9;}
	.st3{fill:#4978AA;}
	.st4{fill:#4979AB;}
	.st5{fill:#487AAC;}
	.st6{fill:#487BAD;}
	.st7{fill:#487BAE;}
	.st8{fill:#487CAF;}
	.st9{fill:#477DB0;}
	.st10{fill:#477EB1;}
	.st11{fill:#477EB2;}
	.st12{fill:#467FB3;}
	.st13{fill:#4680B4;}
	.st14{fill:#4681B5;}
	.st15{fill:#4581B6;}
	.st16{fill:#4582B7;}
	.st17{fill:#4583B8;}
	.st18{fill:#4584B9;}
	.st19{fill:#4484BA;}
	.st20{fill:#4485BB;}
	.st21{fill:#4486BC;}
	.st22{fill:#4387BD;}
	.st23{fill:#4387BE;}
	.st24{fill:#4388BF;}
	.st25{fill:#4289C0;}
	.st26{fill:#428AC1;}
	.st27{fill:#428AC3;}
	.st28{fill:#428BC4;}
	.st29{fill:#418CC5;}
	.st30{fill:#418DC6;}
	.st31{fill:#418DC7;}
	.st32{fill:#408EC8;}
	.st33{fill:#408FC9;}
	.st34{fill:#4090CA;}
	.st35{fill:#3F90CB;}
	.st36{fill:#3F91CC;}
	.st37{fill:#3F92CD;}
	.st38{fill:#3F93CE;}
	.st39{fill:#3E93CF;}
	.st40{fill:#3E94D0;}
	.st41{fill:#3E95D1;}
	.st42{fill:#3D96D2;}
	.st43{fill:#3D96D3;}
	.st44{fill:#3D97D4;}
	.st45{fill:#3C98D5;}
	.st46{fill:#3C99D6;}
	.st47{fill:#3C99D7;}
	.st48{fill:#3C9AD8;}
	.st49{fill:#3B9BD9;}
	.st50{fill:#3B9CDA;}
	.st51{fill:#3B9CDB;}
	.st52{fill:#3A9DDC;}
	.st53{fill:#3A9EDD;}
	.st54{fill:none;}
	.st55{fill:#FFFFFF;}
</style>
<g>
	<g>
		<path class="st0" d="M48,41.2v0.6c0,1.1-0.3,2-0.7,2.9c-0.6,1.2-1.6,2.1-2.8,2.7L48,41.2z"/>
		<path class="st1" d="M48,39v2.3l-3.6,6.2c-0.5,0.2-1,0.4-1.6,0.5L48,39z"/>
		<path class="st2" d="M48,36.7V39l-5.2,8.9c-0.3,0.1-0.7,0.1-1,0.1h-0.4L48,36.7z"/>
		<polygon class="st3" points="40.2,48 48,34.5 48,36.7 41.5,48 		"/>
		<polygon class="st4" points="38.9,48 48,32.2 48,34.5 40.2,48 		"/>
		<polygon class="st5" points="37.6,48 48,29.9 48,32.2 38.9,48 		"/>
		<polygon class="st6" points="36.3,48 48,27.7 48,29.9 37.6,48 		"/>
		<polygon class="st7" points="35,48 48,25.4 48,27.7 36.3,48 		"/>
		<polygon class="st8" points="33.6,48 48,23.1 48,25.4 35,48 		"/>
		<polygon class="st9" points="32.3,48 48,20.9 48,23.1 33.6,48 		"/>
		<polygon class="st10" points="31,48 48,18.6 48,20.9 32.3,48 		"/>
		<polygon class="st11" points="29.7,48 48,16.4 48,18.6 31,48 		"/>
		<polygon class="st12" points="28.4,48 48,14.1 48,16.4 29.7,48 		"/>
		<polygon class="st13" points="27.1,48 48,11.8 48,14.1 28.4,48 		"/>
		<polygon class="st14" points="25.8,48 48,9.6 48,11.8 27.1,48 		"/>
		<polygon class="st15" points="24.5,48 48,7.3 48,9.6 25.8,48 		"/>
		<polygon class="st16" points="23.2,48 48,5 48,7.3 24.5,48 		"/>
		<polygon class="st17" points="21.9,48 48,2.8 48,5 23.2,48 		"/>
		<polygon class="st18" points="20.6,48 48,0.5 48,2.8 21.9,48 		"/>
		<polygon class="st19" points="19.3,48 47,0 48,0 48,0.5 20.6,48 		"/>
		<polygon class="st20" points="18,48 45.7,0 47,0 19.3,48 		"/>
		<polygon class="st21" points="16.7,48 44.4,0 45.7,0 18,48 		"/>
		<polygon class="st22" points="15.4,48 43.1,0 44.4,0 16.7,48 		"/>
		<polygon class="st23" points="14.1,48 41.8,0 43.1,0 15.4,48 		"/>
		<polygon class="st24" points="12.8,48 40.5,0 41.8,0 14.1,48 		"/>
		<polygon class="st25" points="11.4,48 39.2,0 40.5,0 12.8,48 		"/>
		<polygon class="st26" points="10.1,48 37.9,0 39.2,0 11.4,48 		"/>
		<polygon class="st27" points="8.8,48 36.6,0 37.9,0 10.1,48 		"/>
		<polygon class="st28" points="7.5,48 35.2,0 36.6,0 8.8,48 		"/>
		<polygon class="st29" points="6.2,48 33.9,0 35.2,0 7.5,48 		"/>
		<polygon class="st30" points="4.9,48 32.6,0 33.9,0 6.2,48 		"/>
		<polygon class="st31" points="3.6,48 31.3,0 32.6,0 4.9,48 		"/>
		<polygon class="st32" points="2.3,48 30,0 31.3,0 3.6,48 		"/>
		<polygon class="st33" points="1,48 28.7,0 30,0 2.3,48 		"/>
		<polygon class="st34" points="0,47.5 27.4,0 28.7,0 1,48 0,48 		"/>
		<polygon class="st35" points="0,45.2 26.1,0 27.4,0 0,47.5 		"/>
		<polygon class="st36" points="0,43 24.8,0 26.1,0 0,45.2 		"/>
		<polygon class="st37" points="0,40.7 23.5,0 24.8,0 0,43 		"/>
		<polygon class="st38" points="0,38.4 22.2,0 23.5,0 0,40.7 		"/>
		<polygon class="st39" points="0,36.2 20.9,0 22.2,0 0,38.4 		"/>
		<polygon class="st40" points="0,33.9 19.6,0 20.9,0 0,36.2 		"/>
		<polygon class="st41" points="0,31.6 18.3,0 19.6,0 0,33.9 		"/>
		<polygon class="st42" points="0,29.4 17,0 18.3,0 0,31.6 		"/>
		<polygon class="st43" points="0,27.1 15.7,0 17,0 0,29.4 		"/>
		<polygon class="st44" points="0,24.9 14.4,0 15.7,0 0,27.1 		"/>
		<polygon class="st45" points="0,22.6 13,0 14.4,0 0,24.9 		"/>
		<polygon class="st46" points="0,20.3 11.7,0 13,0 0,22.6 		"/>
		<polygon class="st47" points="0,18.1 10.4,0 11.7,0 0,20.3 		"/>
		<polygon class="st48" points="0,15.8 9.1,0 10.4,0 0,18.1 		"/>
		<polygon class="st49" points="0,13.5 7.8,0 9.1,0 0,15.8 		"/>
		<polygon class="st50" points="0,11.3 6.5,0 7.8,0 0,13.5 		"/>
		<path class="st51" d="M6.5,0L0,11.3V9l5.2-8.9C5.5,0,5.8,0,6.2,0H6.5z"/>
		<path class="st52" d="M5.2,0.1L0,9V6.8l3.6-6.2C4.1,0.3,4.6,0.2,5.2,0.1z"/>
		<path class="st53" d="M3.6,0.6L0,6.8V6.1c0-1.1,0.3-2,0.7-2.9C1.4,2.1,2.4,1.1,3.6,0.6z"/>
	</g>
	<path class="st54" d="M48,0v41.8c0,1.1-0.3,2-0.7,2.9c-0.6,1.2-1.6,2.1-2.8,2.7c-0.5,0.2-1,0.4-1.6,0.5c-0.3,0.1-0.7,0.1-1,0.1H0
		V6.1c0-1.1,0.3-2,0.7-2.9c0.6-1.2,1.6-2.1,2.8-2.6c0.5-0.2,1-0.4,1.6-0.5C5.5,0,5.8,0,6.2,0H48z"/>
	<g>
		<polygon class="st55" points="16.5,21.7 12.4,21.7 12.4,17.6 9.7,17.6 9.7,21.7 5.5,21.7 5.5,24.5 9.7,24.5 9.7,28.6 12.4,28.6 
			12.4,24.5 16.5,24.5 		"/>
		<path class="st55" d="M28.7,24c3.2,0,5.7-2.6,5.7-5.7s-2.6-5.7-5.7-5.7S23,15.1,23,18.2S25.6,24,28.7,24z M28.7,26.8
			c-3.8,0-11.4,1.9-11.4,5.7v2.9h22.8v-2.9C40.1,28.7,32.5,26.8,28.7,26.8z"/>
	</g>
</g>
</svg>
