<svg width="64" height="64" viewBox="0 0 64 64" fill="none" xmlns="http://www.w3.org/2000/svg">
<path d="M49.8661 33.0668C49.1195 32.6402 48.3461 32.2935 47.5728 32.0002C48.3461 31.7068 49.1195 31.3602 49.8661 30.9335C54.9862 27.9735 57.8395 22.6135 57.8661 17.0935C53.0928 14.3468 47.0128 14.1335 41.8661 17.0935C41.1195 17.5202 40.4261 18.0268 39.7861 18.5335C39.9195 17.7068 39.9995 16.8535 39.9995 16.0002C39.9995 10.0802 36.7728 4.93349 31.9995 2.16016C27.2261 4.93349 23.9995 10.0802 23.9995 16.0002C23.9995 16.8535 24.0795 17.7068 24.2128 18.5335C23.5728 18.0002 22.8795 17.4935 22.1328 17.0668C17.0128 14.1068 10.9328 14.3202 6.13281 17.0668C6.13281 22.5868 8.98615 27.9468 14.1328 30.9068C14.8795 31.3335 15.6528 31.6802 16.4261 31.9735C15.6528 32.2668 14.8795 32.6135 14.1328 33.0402C9.01281 36.0002 6.15948 41.3602 6.13281 46.8802C10.9061 49.6268 16.9861 49.8402 22.1328 46.8802C22.8795 46.4535 23.5728 45.9468 24.2128 45.4402C24.0795 46.2935 23.9995 47.1468 23.9995 48.0002C23.9995 53.9202 27.2261 59.0668 31.9995 61.8402C36.7728 59.0668 39.9995 53.9202 39.9995 48.0002C39.9995 47.1468 39.9195 46.2935 39.7861 45.4668C40.4261 46.0002 41.1195 46.4802 41.8661 46.9068C46.9861 49.8668 53.0662 49.6535 57.8661 46.9068C57.8395 41.3868 54.9862 36.0268 49.8661 33.0668ZM31.9995 42.6668C26.1061 42.6668 21.3328 37.8935 21.3328 32.0002C21.3328 26.1068 26.1061 21.3335 31.9995 21.3335C37.8928 21.3335 42.6661 26.1068 42.6661 32.0002C42.6661 37.8935 37.8928 42.6668 31.9995 42.6668Z" fill="#DAE2EB"/>
</svg>
