<svg width="24" height="25" viewBox="0 0 24 25" fill="none" xmlns="http://www.w3.org/2000/svg">
<path fill-rule="evenodd" clip-rule="evenodd" d="M22.9722 6.38027C23.1321 5.87286 22.9722 5.5 22.2113 5.5H19.6951C19.0553 5.5 18.7603 5.82209 18.6004 6.17726C18.6004 6.17726 17.3208 9.14563 15.5081 11.0738C14.9217 11.6319 14.6551 11.8095 14.3352 11.8095C14.1752 11.8095 13.9353 11.6319 13.9353 11.1245V6.38027C13.9353 5.77137 13.758 5.5 13.2248 5.5H9.27079C8.87098 5.5 8.63053 5.78261 8.63053 6.05044C8.63053 6.62767 9.53683 6.76079 9.63025 8.38453V11.911C9.63025 12.6842 9.48354 12.8244 9.16364 12.8244C8.31064 12.8244 6.23569 9.84276 5.00506 6.431C4.76389 5.76787 4.52199 5.5 3.87892 5.5H1.36271C0.643792 5.5 0.5 5.82209 0.5 6.17726C0.5 6.81155 1.35305 9.9575 4.47195 14.1183C6.55119 16.9597 9.48072 18.5 12.1465 18.5C13.7459 18.5 13.9438 18.1579 13.9438 17.5686V15.4211C13.9438 14.7368 14.0953 14.6003 14.6018 14.6003C14.9749 14.6003 15.6147 14.7779 17.1076 16.1479C18.8136 17.7716 19.0949 18.5 20.0545 18.5H22.5708C23.2897 18.5 23.6491 18.1579 23.4418 17.4828C23.2148 16.8099 22.4003 15.8337 21.3195 14.6764C20.733 14.0168 19.8533 13.3064 19.5867 12.9512C19.2135 12.4946 19.3201 12.2915 19.5867 11.8857C19.5867 11.8857 22.6523 7.77562 22.9722 6.38027Z" fill="white"/>
</svg>
