<svg width="546" height="250" viewBox="0 0 546 250" fill="none" xmlns="http://www.w3.org/2000/svg">
<path d="M339.305 113V122.417H325V136.583H339.305V146L356 129.5L339.305 113Z" fill="#DAE2EB"/>
<path d="M376 150.863V177.194C376 188.841 404.064 198.342 439.011 198.342C473.539 198.342 502.021 188.841 502.021 177.194V150.863C486.916 160.365 461.863 164.238 439.011 164.238C416.158 163.82 391.105 160.365 376 150.863Z" fill="#5181B8"/>
<path d="M376 102.548V129.297C376 140.943 404.064 150.445 439.011 150.445C473.539 150.445 502.021 140.943 502.021 129.297V102.966C486.916 112.467 461.863 116.34 439.011 116.34C416.158 115.922 391.105 112.467 376 102.548Z" fill="#5181B8"/>
<path d="M439.039 102.548C473.838 102.548 502.049 93.0799 502.049 81.4001C502.049 69.7203 473.838 60.252 439.039 60.252C404.239 60.252 376.028 69.7203 376.028 81.4001C376.028 93.0799 404.239 102.548 439.039 102.548Z" fill="#5181B8"/>
<path d="M167.5 129.5C167.5 91.9499 197.95 61.5 235.5 61.5C273.05 61.5 303.5 91.9499 303.5 129.5C303.5 167.05 273.05 197.5 235.5 197.5C197.95 197.5 167.5 167.05 167.5 129.5Z" stroke="#5181B8" stroke-width="3"/>
<path d="M254.759 103.208C254.759 92.5739 246.134 83.9492 235.5 83.9492C224.866 83.9492 216.241 92.5739 216.241 103.208C216.241 113.843 224.866 122.467 235.5 122.467C246.134 122.467 254.759 113.843 254.759 103.208Z" fill="#5181B8"/>
<path d="M196.954 162.158C218.837 181.752 252.052 181.78 273.962 162.241L273.934 153.365C273.934 140.554 248.284 134.106 235.444 134.106C222.605 134.106 196.954 140.554 196.954 153.365V162.158Z" fill="#5181B8"/>
<path d="M65.375 61C55.7746 61 48 68.7746 48 78.375C48 87.9754 55.7746 95.75 65.375 95.75C74.9754 95.75 82.75 87.9754 82.75 78.375C82.75 68.7746 74.9754 61 65.375 61ZM65.375 66.9782C68.0254 66.9782 70.1752 69.128 70.1752 71.7784C70.1752 74.4288 68.0254 76.5786 65.375 76.5786C62.7246 76.5786 60.5748 74.4288 60.5748 71.7784C60.5748 69.128 62.7246 66.9782 65.375 66.9782ZM75.0049 86.5619C69.5273 91.4504 61.2227 91.4504 55.7451 86.5324V84.3237C55.7451 81.1138 62.165 79.5235 65.375 79.5235C68.585 79.5235 75.0049 81.1432 75.0049 84.3237V86.5619Z" fill="#DAE2EB"/>
<path d="M113.75 95C94.5686 95 79 110.531 79 129.75C79 148.969 94.5313 164.5 113.75 164.5C132.969 164.5 148.5 148.969 148.5 129.75C148.5 110.531 132.931 95 113.75 95ZM113.75 106.956C119.076 106.956 123.359 111.276 123.359 116.565C123.359 121.891 119.039 126.174 113.75 126.174C108.424 126.174 104.141 121.854 104.141 116.565C104.103 111.276 108.424 106.956 113.75 106.956ZM132.969 146.101C122.019 155.859 105.407 155.859 94.4941 146.064V141.669C94.4941 135.262 107.307 132.059 113.75 132.059C120.156 132.059 133.006 135.3 133.006 141.669V146.101H132.969Z" fill="#DAE2EB"/>
<path d="M220.509 224.303C218.953 224.303 217.691 223.041 217.691 221.485V191.508C217.691 189.953 218.953 188.691 220.509 188.691H250.491C252.047 188.691 253.309 189.953 253.309 191.508V221.485C253.309 223.041 252.047 224.303 250.491 224.303H220.509Z" fill="#DAE2EB"/>
<path d="M250.491 185.5H220.509C217.201 185.5 214.5 188.2 214.5 191.508V221.485C214.5 224.793 217.201 227.493 220.509 227.493H250.491C253.799 227.493 256.5 224.793 256.5 221.485V191.508C256.5 188.2 253.799 185.5 250.491 185.5Z" fill="#DAE2EB" stroke="white" stroke-width="3"/>
<path d="M239.783 213.078H224.566V217.428H239.783V213.078Z" fill="white"/>
<path d="M246.321 204.378H224.566V208.728H246.321V204.378Z" fill="white"/>
<path d="M246.322 195.678H224.567V200.028H246.322V195.678Z" fill="white"/>
<path d="M58.6683 26.746L58.8897 27.8775L60.0401 27.9546C65.0931 28.293 69.0315 32.4167 69.0074 37.5125V37.5196C69.0074 42.8487 64.6908 47.1649 59.36 47.1649H30.3769C23.8199 47.1649 18.5 41.8456 18.5 35.2906C18.5 29.1824 23.1261 24.1343 29.0886 23.4912L29.887 23.405L30.258 22.6928C32.7965 17.8198 37.8966 14.5 43.7537 14.5C51.1355 14.5 57.2991 19.7493 58.6683 26.746Z" stroke="#5181B8" stroke-width="3"/>
<path d="M52.4988 28.696C52.5943 28.24 52.4033 28 51.9499 28H49.6587C49.1337 28 48.9427 28.24 48.7757 28.576C48.7757 28.576 47.5585 31.408 46.0549 33.088C45.5776 33.64 45.4821 33.808 45.2196 33.808C45.0048 33.808 44.9093 33.616 44.9093 33.136V28.792C44.9093 28.192 44.8377 28 44.3604 28H40.7327C40.4463 28 40.2554 28.168 40.2554 28.384C40.2554 28.96 41.1146 29.08 41.1146 30.64V33.832C41.1146 34.48 41.0907 34.72 40.7804 34.72C39.9928 34.72 37.9642 31.984 36.9141 28.84C36.6993 28.192 36.4845 28.024 35.8878 28.024H33.5728C33.2387 28.024 33 28.264 33 28.6C33 29.224 33.716 32.104 36.5322 35.992C38.4177 38.584 41.0668 40 43.2864 40C44.6468 40 44.9093 39.76 44.9093 39.16V37.168C44.9093 36.664 45.1002 36.448 45.3866 36.448C45.6969 36.448 46.1742 36.568 47.463 37.864C48.9905 39.352 49.1098 39.976 49.9451 39.976H52.4988C52.7613 39.976 53 39.856 53 39.4C53 38.8 52.2601 37.768 51.0907 36.52C50.6134 35.872 49.8496 35.176 49.611 34.864C49.253 34.48 49.3723 34.264 49.611 33.88C49.611 33.88 52.2363 29.944 52.4988 28.696Z" fill="#5181B8"/>
</svg>
